<svg width="90%" height="90%" viewBox="0 0 26 26" fill="none" xmlns="http://www.w3.org/2000/svg">
<path d="M13 15.8893C14.6872 15.8893 16.055 14.5215 16.055 12.8343C16.055 11.1471 14.6872 9.7793 13 9.7793C11.3128 9.7793 9.94501 11.1471 9.94501 12.8343C9.94501 14.5215 11.3128 15.8893 13 15.8893Z" fill="white"/>
<path d="M15.1666 2.88976C15.1666 2.50667 15.0145 2.13927 14.7436 1.86838C14.4727 1.59749 14.1053 1.44531 13.7222 1.44531H12.2778C11.8947 1.44531 11.5273 1.59749 11.2564 1.86838C10.9855 2.13927 10.8333 2.50667 10.8333 2.88976V7.22309H15.1666V2.88976Z" fill="white"/>
<path d="M7.41003 19.4991C7.28725 19.6473 7.22075 19.834 7.22225 20.0264V21.6658H18.7778V20.0047C18.7799 19.8122 18.7134 19.6253 18.59 19.4775C17.8892 18.6966 17.025 18.0796 16.0589 17.6702C15.0929 17.2608 14.0485 17.0691 13 17.1086C11.9499 17.0718 10.9045 17.2669 9.93829 17.6801C8.97211 18.0933 8.10888 18.7144 7.41003 19.4991Z" fill="white"/>
<path d="M20.2222 4.33398H16.6111V5.77843H20.2222V23.1118H5.77776V5.77843H9.38887V4.33398H5.77776C5.39467 4.33398 5.02727 4.48617 4.75638 4.75705C4.4855 5.02794 4.33331 5.39534 4.33331 5.77843V23.1118C4.33331 23.4949 4.4855 23.8623 4.75638 24.1331C5.02727 24.404 5.39467 24.5562 5.77776 24.5562H20.2222C20.6053 24.5562 20.9727 24.404 21.2436 24.1331C21.5145 23.8623 21.6666 23.4949 21.6666 23.1118V5.77843C21.6666 5.39534 21.5145 5.02794 21.2436 4.75705C20.9727 4.48617 20.6053 4.33398 20.2222 4.33398V4.33398Z" fill="white"/>
</svg>
