<svg width="100%" height="100%" viewBox="0 0 56 77" fill="none" xmlns="http://www.w3.org/2000/svg">
<path d="M10.182 33.0909H5.09106V22.9091C5.09106 10.1818 15.2729 0 28.0002 0C39.4547 0 49.382 8.65454 50.6547 20.1091L45.5638 20.6182C44.5456 11.7091 36.9092 5.09091 28.0002 5.09091C18.0729 5.09091 10.182 12.9818 10.182 22.9091V33.0909Z" fill="white"/>
<path d="M48.3636 76.3636H7.63636C3.30909 76.3636 0 73.0545 0 68.7272V38.1818C0 33.8545 3.30909 30.5454 7.63636 30.5454H48.3636C52.6909 30.5454 56 33.8545 56 38.1818V68.7272C56 73.0545 52.6909 76.3636 48.3636 76.3636ZM7.63636 35.6363C6.10909 35.6363 5.09091 36.6545 5.09091 38.1818V68.7272C5.09091 70.2545 6.10909 71.2727 7.63636 71.2727H48.3636C49.8909 71.2727 50.9091 70.2545 50.9091 68.7272V38.1818C50.9091 36.6545 49.8909 35.6363 48.3636 35.6363H7.63636Z" fill="white"/>
<path d="M27.9998 50.909C30.8115 50.909 33.0908 48.6298 33.0908 45.8181C33.0908 43.0065 30.8115 40.7272 27.9998 40.7272C25.1882 40.7272 22.9089 43.0065 22.9089 45.8181C22.9089 48.6298 25.1882 50.909 27.9998 50.909Z" fill="white"/>
<path d="M29.2725 45.8182H26.727L24.1816 61.0909H31.8179L29.2725 45.8182Z" fill="white"/>
</svg>
