<svg width="100%" height="100%" viewBox="0 0 62 69" fill="none" xmlns="http://www.w3.org/2000/svg">
<path d="M55.3571 30.1875H52.0357V20.4844C52.0357 9.19102 42.5973 0 31 0C19.4027 0 9.96428 9.19102 9.96428 20.4844V30.1875H6.64286C2.97545 30.1875 0 33.085 0 36.6562V62.5312C0 66.1025 2.97545 69 6.64286 69H55.3571C59.0246 69 62 66.1025 62 62.5312V36.6562C62 33.085 59.0246 30.1875 55.3571 30.1875ZM40.9643 30.1875H21.0357V20.4844C21.0357 15.1342 25.5058 10.7812 31 10.7812C36.4942 10.7812 40.9643 15.1342 40.9643 20.4844V30.1875Z" fill="white"/>
</svg>
