<svg width="100%" height="100%" viewBox="0 0 80 64" fill="none" xmlns="http://www.w3.org/2000/svg">
<path d="M78 26H70V18C70 16.9 69.1 16 68 16H64C62.9 16 62 16.9 62 18V26H54C52.9 26 52 26.9 52 28V32C52 33.1 52.9 34 54 34H62V42C62 43.1 62.9 44 64 44H68C69.1 44 70 43.1 70 42V34H78C79.1 34 80 33.1 80 32V28C80 26.9 79.1 26 78 26ZM28 32C36.8375 32 44 24.8375 44 16C44 7.1625 36.8375 0 28 0C19.1625 0 12 7.1625 12 16C12 24.8375 19.1625 32 28 32ZM39.2 36H37.1125C34.3375 37.275 31.25 38 28 38C24.75 38 21.675 37.275 18.8875 36H16.8C7.525 36 0 43.525 0 52.8V58C0 61.3125 2.6875 64 6 64H50C53.3125 64 56 61.3125 56 58V52.8C56 43.525 48.475 36 39.2 36Z" fill="white"/>
</svg>
