<svg width="100%" height="100%" viewBox="0 0 95 87" fill="none" xmlns="http://www.w3.org/2000/svg">
<path d="M52.9969 0C76.2014 0 95 19.5161 95 43.3692C95 67.2222 76.2014 86.7383 52.9969 86.7383C38.2686 86.7383 25.3865 78.8451 17.8754 66.9186L24.5053 61.4975C30.4218 71.429 40.9541 78.0645 53.0389 78.0645C61.9419 78.0645 70.4803 74.4091 76.7757 67.9025C83.0711 61.3958 86.6078 52.5709 86.6078 43.3692C86.6078 34.1674 83.0711 25.3425 76.7757 18.8359C70.4803 12.3292 61.9419 8.67383 53.0389 8.67383C35.9187 8.67383 21.8198 21.9448 19.7637 39.0322H31.345L15.6515 55.2089L0 39.0322H11.2875C13.3856 17.1308 31.261 0 52.9969 0M65.4174 35.7362C67.5155 35.7796 69.2359 37.5143 69.2359 39.7262V59.7193C69.2359 61.8878 67.5155 63.7093 65.3754 63.7093H42.1709C40.0309 63.7093 38.3105 61.8878 38.3105 59.7193V39.7262C38.3105 37.5143 40.0309 35.7796 42.129 35.7362V31.3559C42.129 24.7204 47.3741 19.3426 53.7522 19.3426C60.1723 19.3426 65.4174 24.7204 65.4174 31.3559V35.7362ZM53.7522 25.4143C50.6051 25.4143 48.0035 28.0598 48.0035 31.3559V35.7362H59.5428V31.3559C59.5428 28.0598 56.9413 25.4143 53.7522 25.4143V25.4143Z" fill="white"/>
</svg>
